
        <svg xmlns="http://www.w3.org/2000/svg" xmlns:xlink="http://www.w3.org/1999/xlink" version="1.1" width="3181.8181818181824" height="1218.1818181818182" viewBox="0 0 3181.8181818181824 1218.1818181818182">
			
			<g transform="scale(9.090909090909092) translate(10, 10)">
				<defs id="SvgjsDefs2144"/><g id="SvgjsG2145" featureKey="symbolContainer" transform="matrix(1,0,0,1,0,0)" fill="#fff">    <rect width="110" height="114"/></g><g id="SvgjsG2146" featureKey="monogramFeature-0" transform="matrix(1.970720695323076,0,0,1.970720695323076,15.152027014328205,-19.29053934685124)" fill="#000000"><path d="M3.9 60 c-0.9 0 -1.44 -0.42 -1.44 -1.14 l0 -0.24 c0 -1.68 2.4 -2.4 2.4 -5.16 l0 -29.52 c0 -2.7 -2.4 -3.48 -2.4 -5.16 l0 -0.24 c0 -0.72 0.54 -1.14 1.44 -1.14 l14.94 0 c10.86 0 19.14 4.08 19.14 14.22 c0 9 -6.78 14.88 -17.16 14.88 l-4.98 0 l0 6.96 c0 2.76 2.7 3.48 2.7 5.16 l0 0.24 c0 0.72 -0.6 1.14 -1.44 1.14 l-13.2 0 z M18.6 42.3 l2.22 0 c3.96 0 5.88 -3.84 5.88 -8.16 c0 -7.86 -4.14 -12.6 -7.86 -12.6 l-0.84 0 c-1.38 0 -2.16 1.08 -2.16 2.88 l0 15 c0 1.86 0.78 2.88 2.76 2.88 z"/></g><g id="SvgjsG2147" featureKey="nameFeature-0" transform="matrix(1.3535849212093825,0,0,1.3535849212093825,126.75139573728977,22.13598436197987)" fill="#fff"><path d="M11.52 12 c6.28 0 9.92 3.84 9.92 9.04 s-3.64 8.88 -9.92 8.88 l-5.8 0 l0 10.08 l-3.32 0 l0 -28 l9.12 0 z M11.44 26.96 c4.04 0 6.68 -2.08 6.68 -5.92 c0 -3.88 -2.64 -5.92 -6.68 -5.92 l-5.72 0 l0 11.84 l5.72 0 z M36.12 18.88 c0.36 0 0.68 0 1 0.08 l0 3.08 c-0.32 -0.08 -0.68 -0.08 -0.96 -0.08 c-3.96 0 -7.2 2.84 -7.76 7.52 l0 10.52 l-3.28 0 l0 -20.8 l3.28 0 l0 5.48 c0.76 -3.08 3.6 -5.8 7.72 -5.8 z M50.16 18.84 c3.68 0 6.52 2.04 7.48 4.28 l0 -3.92 l3.28 0 l0 20.8 l-3.28 0 l0 -4 c-0.96 2.4 -3.8 4.4 -7.48 4.4 c-4.72 0 -10.44 -3.56 -10.44 -10.8 c0 -7.16 5.72 -10.76 10.44 -10.76 z M50.519999999999996 21.76 c-3.52 0 -7.6 2.6 -7.6 7.84 c0 5.28 4.08 7.88 7.6 7.88 c3.56 0 7.28 -2.52 7.28 -7.88 c0 -5.32 -3.72 -7.84 -7.28 -7.84 z M75.28 18.84 c3.76 0 7.04 1.72 8.84 5.08 l-2.6 1.12 c-1.32 -2.08 -3.44 -3.28 -6.2 -3.28 c-3.44 0 -7.52 2.6 -7.52 7.88 c0 5.24 4.08 7.8 7.52 7.8 c2.76 0 4.88 -1.16 6.2 -3.24 l2.64 1.12 c-1.84 3.36 -5.12 5.04 -8.88 5.04 c-4.76 0 -10.68 -3.52 -10.68 -10.72 s5.92 -10.8 10.68 -10.8 z M97.08 21.96 l-4.4 0 l0 13.4 c0 1.24 0.48 2 1.68 2 c1.04 0 1.8 -0.24 2.68 -0.64 l0 2.8 c-0.88 0.44 -1.92 0.72 -3.56 0.72 c-2.12 0 -4.04 -0.96 -4.04 -4.6 l0 -13.68 l-2.88 0 l0 -2.76 l2.88 0 l0 -4.88 l3.24 0 l0 4.88 l4.4 0 l0 2.76 z M104.04 11.719999999999999 l0 2.92 l-3.28 0 l0 -2.92 l3.28 0 z M104.04 19.2 l0 20.8 l-3.28 0 l0 -20.8 l3.28 0 z M118.4 18.84 c3.76 0 7.04 1.72 8.84 5.08 l-2.6 1.12 c-1.32 -2.08 -3.44 -3.28 -6.2 -3.28 c-3.44 0 -7.52 2.6 -7.52 7.88 c0 5.24 4.08 7.8 7.52 7.8 c2.76 0 4.88 -1.16 6.2 -3.24 l2.64 1.12 c-1.84 3.36 -5.12 5.04 -8.88 5.04 c-4.76 0 -10.68 -3.52 -10.68 -10.72 s5.92 -10.8 10.68 -10.8 z M139.88000000000002 18.84 c4.72 0 11.04 3.6 10.2 11.96 l-17.56 0 c0.52 4.56 4.08 6.8 7.84 6.8 c2.88 0 4.72 -0.8 6.28 -2.32 l1.92 1.76 c-1.88 2.24 -4.6 3.36 -8.24 3.36 c-5.36 0 -11.08 -3.6 -11.08 -10.76 c0 -7.2 5.92 -10.8 10.64 -10.8 z M139.88000000000002 21.68 c-3.08 0 -6.76 2.2 -7.36 6.68 l14.68 0 c-0.4 -4.48 -4.2 -6.68 -7.32 -6.68 z"/></g>
			</g>
		</svg>
	